<?xml version="1.0" encoding="utf-8"?>
<!-- Generator: Adobe Illustrator 18.0.0, SVG Export Plug-In . SVG Version: 6.00 Build 0)  -->
<!DOCTYPE svg PUBLIC "-//W3C//DTD SVG 1.1//EN" "http://www.w3.org/Graphics/SVG/1.1/DTD/svg11.dtd">
<svg version="1.1" id="Layer_1" xmlns="http://www.w3.org/2000/svg" xmlns:xlink="http://www.w3.org/1999/xlink" x="0px" y="0px"
	 viewBox="0 0 216 28.8" enable-background="new 0 0 216 28.8" xml:space="preserve">
<path fill="#E53029" d="M174.2,5.5c0,0,5.1-0.2,7.8,4.9c-1.4,0-8.3,0-8.3,0s-1.6-0.1-2.9,1.8c-0.4,0.8-0.8,1.6-0.3,3.2
	c-0.7-1.1-3.5-6.1-3.5-6.1S169,5.7,174.2,5.5z"/>
<path fill="#FDD900" d="M181.7,18.6c0,0-2.4,4.5-8.2,4.3c0.7-1.2,4.1-7.1,4.1-7.1s0.8-1.3-0.1-3.4c-0.5-0.7-1-1.5-2.6-1.9
	c1.3,0,7.1,0,7.1,0S184.2,14,181.7,18.6z"/>
<path fill="#66B44B" d="M166.7,18.6c0,0-2.8-4.3,0.3-9.2c0.7,1.2,4.1,7.1,4.1,7.1s0.7,1.4,3,1.6c0.9-0.1,1.8-0.1,3-1.3
	c-0.6,1.1-3.5,6.1-3.5,6.1S169.4,23,166.7,18.6z"/>
<path fill="#61AB48" d="M173.6,22.9l1.2-4.8c0,0,1.3-0.1,2.3-1.3C176.4,18,173.6,22.9,173.6,22.9z"/>
<circle fill="#FFFFFF" cx="174.2" cy="14.3" r="3.9"/>
<linearGradient id="SVGID_1_" gradientUnits="userSpaceOnUse" x1="174.1706" y1="11.0949" x2="174.1706" y2="17.2969">
	<stop  offset="0" style="stop-color:#86BBE5"/>
	<stop  offset="1" style="stop-color:#116CB3"/>
</linearGradient>
<circle fill="url(#SVGID_1_)" cx="174.2" cy="14.3" r="3.2"/>
<path fill="#F0CE00" d="M182,10.4l-4.8,1.4c0,0-0.7-1.1-2.3-1.4C176.3,10.4,182,10.4,182,10.4z"/>
<path fill="#D92F27" d="M170.4,15.3c-0.7-1.2-3.4-5.9-3.4-5.9l3.5,3.5c0,0-0.4,0.7-0.2,1.8L170.4,15.3z"/>
<text transform="matrix(1 0 0 1 34.6679 17.4899)" fill="#333333" font-family="'Raleway-Regular'" font-size="8.6895">works best on Google Chrome</text>
</svg>
