<?xml version="1.0" encoding="utf-8"?>
<!-- Generator: Adobe Illustrator 18.1.1, SVG Export Plug-In . SVG Version: 6.00 Build 0)  -->
<svg version="1.1" id="Layer_1" xmlns="http://www.w3.org/2000/svg" xmlns:xlink="http://www.w3.org/1999/xlink" x="0px" y="0px"
	 viewBox="1 -1 32 32" enable-background="new 1 -1 32 32" xml:space="preserve">
<path id="fork_1_" d="M14.3,8.2h9.3v3l8.7-5l-8.7-5v3H9.8C11.6,5.2,13,6.7,14.3,8.2z M23.6,20.2c-0.7-0.2-1.6-0.8-2.6-1.8
	c-2.1-2-4.3-5.4-6.6-8.4C12,7.2,9.5,4.3,5.7,4.2h-4v4h4c0.8,0,1.9,0.6,3.3,1.9c2.1,2,4.3,5.4,6.6,8.3c2.2,2.7,4.5,5.4,7.9,5.8v3.1
	l8.7-5l-8.7-5L23.6,20.2L23.6,20.2z"/>
</svg>
