<?xml version="1.0" encoding="utf-8"?>
<!-- Generator: Adobe Illustrator 18.1.1, SVG Export Plug-In . SVG Version: 6.00 Build 0)  -->
<svg version="1.1" id="Layer_1" xmlns="http://www.w3.org/2000/svg" xmlns:xlink="http://www.w3.org/1999/xlink" x="0px" y="0px"
	 viewBox="0 0 50 50" enable-background="new 0 0 50 50" xml:space="preserve">
<path d="M48.8,43.7L33.6,28.5c2-2.9,3-6.4,3-10c0-4.8-1.9-9.3-5.3-12.7c-3.4-3.4-7.9-5.3-12.7-5.3S9.3,2.4,5.9,5.8
	c-3.4,3.4-5.3,7.9-5.3,12.7s1.9,9.3,5.3,12.7s7.9,5.3,12.7,5.3c3.7,0,7.1-1.1,10.1-3.1l15.2,15.2c0.5,0.5,1.5,0.4,2.1-0.2l2.5-2.5
	C49.2,45.2,49.3,44.2,48.8,43.7z M18.6,31.7c-7.2,0-13.1-5.9-13.1-13.1S11.4,5.4,18.6,5.4s13.1,5.9,13.1,13.1S25.9,31.7,18.6,31.7z"
	/>
</svg>
