<?xml version="1.0" encoding="utf-8"?>
<!-- Generator: Adobe Illustrator 18.0.0, SVG Export Plug-In . SVG Version: 6.00 Build 0)  -->
<!DOCTYPE svg PUBLIC "-//W3C//DTD SVG 1.1//EN" "http://www.w3.org/Graphics/SVG/1.1/DTD/svg11.dtd">
<svg version="1.1" id="Layer_1" xmlns="http://www.w3.org/2000/svg" xmlns:xlink="http://www.w3.org/1999/xlink" x="0px" y="0px"
	 viewBox="0 0 72 25.2" enable-background="new 0 0 72 25.2" xml:space="preserve">
<g>
	<path fill="#FFFFFF" d="M70.6,12.3c-1,3.4-5.1,6-9.4,4.8c-4.1-1.2-6.4-5.7-5-10C57.5,3,61.9,0.7,66,2.2c4,1.4,5.8,5.3,5,8.8
		c-3.6,0-7.3,0-10.9,0c-0.1,1.1,0.9,2.2,2.1,2.7c1.6,0.7,3.1,0.2,4.5-1.4C67.9,12.3,69.2,12.3,70.6,12.3z M66.9,7.8
		c-0.1-1.6-1.6-2.6-3.9-2.5c-1.4,0-3.1,1.4-3,2.5C62.3,7.8,64.6,7.8,66.9,7.8z"/>
	<path fill="#FFFFFF" d="M41.7,9.5c0.2,4.1-3.4,7.9-7.8,7.9c-4.2,0-7.9-3.2-7.9-7.9c0-4.9,3.9-7.9,8-7.9C38.2,1.6,41.9,5.3,41.7,9.5
		z M30.2,9.5c0,2.2,1.7,4,3.8,4s3.8-1.9,3.8-4.1S36,5.3,34,5.3C31.8,5.4,30.2,7.3,30.2,9.5z"/>
	<path fill="#FFFFFF" d="M10.8,7.3c1.9,0,3.7,0,5.5,0c0,1.5,0,2.9,0,4.4c-1.8,0-3.6,0-5.5,0c0,1.9,0,3.7,0,5.6c-1.5,0-2.9,0-4.5,0
		c0-1.8,0-3.6,0-5.5c-1.9,0-3.7,0-5.5,0c0-1.5,0-2.9,0-4.5c1.8,0,3.6,0,5.5,0c0-1.9,0-3.8,0-5.6c1.5,0,2.9,0,4.5,0
		C10.8,3.5,10.8,5.4,10.8,7.3z"/>
	<path fill="#FFFFFF" d="M41.4,1.7c1.5,0,2.9,0,4.3,0c0.5,1.6,1.1,3.2,1.6,4.9c0.5,1.6,1.1,3.2,1.8,4.8c1-3.2,2.1-6.4,3.1-9.7
		c1.4,0,2.8,0,4.3,0c-0.1,0.4-0.2,0.7-0.3,1c-1.5,4.3-3,8.5-4.6,12.8c-0.6,1.6-1.9,2.3-3.6,1.8c-0.8-0.2-1.3-0.8-1.6-1.6
		c-1.3-3.5-2.6-7.1-3.9-10.6c-0.2-0.9-0.5-1.7-0.8-2.6C41.6,2.3,41.5,2,41.4,1.7z"/>
	<path fill="#FFFFFF" d="M26,5.6c-0.6,0.2-1,0.3-1.5,0.4c-1.7,0.6-2.6,1.8-2.6,3.7c0,2.2,0,4.4,0,6.7c0,0.3,0,0.6,0,1
		c-1.5,0-2.9,0-4.4,0c0-0.3-0.1-0.6-0.1-0.8c0-2.4,0-4.9,0-7.3c0-3.9,2.8-7,6.7-7.4c0.6-0.1,1.2-0.1,1.9-0.2C26,3,26,4.3,26,5.6z"/>
</g>
<path fill="#B6AFAF" d="M57.8,23.5c-0.3,0-0.6-0.1-0.9-0.2c-0.3-0.2-0.5-0.4-0.6-0.6v0.8h-0.4v-5.6h0.4v2.5c0.2-0.3,0.4-0.5,0.7-0.7
	c0.3-0.2,0.6-0.3,0.9-0.3c0.3,0,0.5,0.1,0.8,0.2c0.2,0.1,0.4,0.3,0.6,0.5s0.3,0.4,0.4,0.7s0.1,0.5,0.1,0.8c0,0.3,0,0.5-0.1,0.8
	c-0.1,0.2-0.2,0.5-0.4,0.7c-0.2,0.2-0.4,0.3-0.6,0.5S58,23.5,57.8,23.5z M57.7,23.1c0.2,0,0.5,0,0.6-0.1c0.2-0.1,0.4-0.2,0.5-0.4
	s0.3-0.3,0.3-0.6s0.1-0.4,0.1-0.6c0-0.2,0-0.4-0.1-0.7c-0.1-0.2-0.2-0.4-0.3-0.6s-0.3-0.3-0.5-0.4c-0.2-0.1-0.4-0.1-0.6-0.1
	c-0.2,0-0.3,0-0.5,0.1c-0.1,0.1-0.3,0.1-0.4,0.2c-0.1,0.1-0.2,0.2-0.3,0.3s-0.2,0.3-0.3,0.4V22c0,0.1,0.1,0.3,0.2,0.4
	c0.1,0.1,0.2,0.2,0.4,0.3c0.1,0.1,0.3,0.2,0.4,0.2S57.5,23.1,57.7,23.1z"/>
<path fill="#B6AFAF" d="M62.3,23.5c-0.3,0-0.5-0.1-0.8-0.2c-0.2-0.1-0.5-0.3-0.6-0.5c-0.2-0.2-0.3-0.4-0.4-0.7s-0.2-0.5-0.2-0.8
	c0-0.3,0-0.5,0.2-0.8c0.1-0.2,0.2-0.5,0.4-0.7s0.4-0.3,0.6-0.4c0.2-0.1,0.5-0.2,0.8-0.2c0.3,0,0.5,0.1,0.8,0.2
	c0.2,0.1,0.5,0.3,0.6,0.4c0.2,0.2,0.3,0.4,0.4,0.7c0.1,0.2,0.1,0.5,0.1,0.8c0,0,0,0.1,0,0.1c0,0,0,0.1,0,0.1h-3.5
	c0,0.2,0.1,0.4,0.2,0.6s0.2,0.4,0.4,0.5c0.1,0.1,0.3,0.3,0.5,0.3c0.2,0.1,0.4,0.1,0.6,0.1c0.1,0,0.3,0,0.4-0.1
	c0.1,0,0.3-0.1,0.4-0.2c0.1-0.1,0.2-0.1,0.3-0.2c0.1-0.1,0.2-0.2,0.2-0.3l0.3,0.1c-0.1,0.1-0.1,0.3-0.3,0.4
	c-0.1,0.1-0.2,0.2-0.4,0.3c-0.1,0.1-0.3,0.2-0.5,0.2S62.5,23.5,62.3,23.5z M63.9,21.2c0-0.2-0.1-0.5-0.2-0.6
	c-0.1-0.2-0.2-0.4-0.3-0.5s-0.3-0.3-0.5-0.3c-0.2-0.1-0.4-0.1-0.6-0.1s-0.4,0-0.6,0.1s-0.3,0.2-0.5,0.3s-0.3,0.3-0.3,0.5
	c-0.1,0.2-0.1,0.4-0.2,0.6H63.9z"/>
<path fill="#B6AFAF" d="M66.9,23.2c0,0-0.1,0-0.1,0.1s-0.1,0.1-0.2,0.1c-0.1,0-0.2,0-0.3,0.1s-0.2,0-0.3,0s-0.2,0-0.3,0
	c-0.1,0-0.2-0.1-0.3-0.1c-0.1-0.1-0.1-0.1-0.2-0.2c0-0.1-0.1-0.2-0.1-0.3v-3h-0.6v-0.3h0.6V18h0.4v1.4h0.9v0.3h-0.9v2.9
	c0,0.1,0.1,0.3,0.2,0.3c0.1,0.1,0.2,0.1,0.3,0.1c0.2,0,0.3,0,0.4-0.1c0.1-0.1,0.2-0.1,0.2-0.1L66.9,23.2z"/>
<path fill="#B6AFAF" d="M68.6,23.5c-0.2,0-0.4,0-0.5-0.1c-0.2-0.1-0.3-0.2-0.4-0.3c-0.1-0.1-0.2-0.2-0.3-0.4
	c-0.1-0.2-0.1-0.3-0.1-0.5c0-0.2,0-0.3,0.1-0.5c0.1-0.1,0.2-0.3,0.3-0.4s0.3-0.2,0.5-0.2c0.2-0.1,0.4-0.1,0.7-0.1
	c0.2,0,0.4,0,0.7,0.1c0.2,0,0.4,0.1,0.6,0.2v-0.4c0-0.4-0.1-0.7-0.3-0.9c-0.2-0.2-0.5-0.3-0.9-0.3c-0.2,0-0.4,0-0.6,0.1
	s-0.4,0.2-0.7,0.4l-0.1-0.3c0.5-0.3,1-0.5,1.5-0.5c0.5,0,0.9,0.1,1.1,0.4c0.3,0.3,0.4,0.7,0.4,1.2v2c0,0.1,0.1,0.2,0.2,0.2v0.3
	c0,0-0.1,0-0.1,0c0,0-0.1,0-0.1,0c-0.1,0-0.2,0-0.2-0.1s-0.1-0.2-0.1-0.3v-0.3c-0.2,0.2-0.4,0.4-0.7,0.6
	C69.2,23.4,68.9,23.5,68.6,23.5z M68.7,23.1c0.3,0,0.6-0.1,0.8-0.2c0.2-0.1,0.4-0.3,0.6-0.4c0.1-0.1,0.1-0.2,0.1-0.3v-0.7
	c-0.2-0.1-0.4-0.1-0.6-0.2c-0.2,0-0.4-0.1-0.6-0.1c-0.2,0-0.4,0-0.5,0.1c-0.2,0-0.3,0.1-0.4,0.2c-0.1,0.1-0.2,0.2-0.3,0.3
	c-0.1,0.1-0.1,0.2-0.1,0.4s0,0.3,0.1,0.4s0.1,0.2,0.2,0.3c0.1,0.1,0.2,0.2,0.3,0.2C68.4,23.1,68.5,23.1,68.7,23.1z"/>
</svg>
