<?xml version="1.0" encoding="utf-8"?>
<!-- Generator: Adobe Illustrator 18.0.0, SVG Export Plug-In . SVG Version: 6.00 Build 0)  -->
<!DOCTYPE svg PUBLIC "-//W3C//DTD SVG 1.1//EN" "http://www.w3.org/Graphics/SVG/1.1/DTD/svg11.dtd">
<svg version="1.1" id="Layer_1" xmlns="http://www.w3.org/2000/svg" xmlns:xlink="http://www.w3.org/1999/xlink" x="0px" y="0px"
	 viewBox="0 0 72 28.8" enable-background="new 0 0 72 28.8" xml:space="preserve">
<g>
	<path fill="#FFFFFF" d="M70.6,14.1c-1,3.4-5.1,6-9.4,4.8c-4.1-1.2-6.4-5.7-5-10C57.5,4.8,61.9,2.5,66,4c4,1.4,5.8,5.3,5,8.8
		c-3.6,0-7.3,0-10.9,0C60,13.9,61,15,62.2,15.5c1.6,0.7,3.1,0.2,4.5-1.4C67.9,14.1,69.2,14.1,70.6,14.1z M66.9,9.6
		C66.8,8,65.3,7,63,7.1c-1.4,0-3.1,1.4-3,2.5C62.3,9.6,64.6,9.6,66.9,9.6z"/>
	<path fill="#FFFFFF" d="M41.7,11.3c0.2,4.1-3.4,7.9-7.8,7.9c-4.2,0-7.9-3.2-7.9-7.9c0-4.9,3.9-7.9,8-7.9
		C38.2,3.4,41.9,7.1,41.7,11.3z M30.2,11.3c0,2.2,1.7,4,3.8,4s3.8-1.9,3.8-4.1S36,7.1,34,7.1C31.8,7.2,30.2,9.1,30.2,11.3z"/>
	<path fill="#FFFFFF" d="M10.8,9.1c1.9,0,3.7,0,5.5,0c0,1.5,0,2.9,0,4.4c-1.8,0-3.6,0-5.5,0c0,1.9,0,3.7,0,5.6c-1.5,0-2.9,0-4.5,0
		c0-1.8,0-3.6,0-5.5c-1.9,0-3.7,0-5.5,0c0-1.5,0-2.9,0-4.5c1.8,0,3.6,0,5.5,0c0-1.9,0-3.8,0-5.6c1.5,0,2.9,0,4.5,0
		C10.8,5.3,10.8,7.2,10.8,9.1z"/>
	<path fill="#FFFFFF" d="M41.4,3.5c1.5,0,2.9,0,4.3,0c0.5,1.6,1.1,3.2,1.6,4.9c0.5,1.6,1.1,3.2,1.8,4.8c1-3.2,2.1-6.4,3.1-9.7
		c1.4,0,2.8,0,4.3,0c-0.1,0.4-0.2,0.7-0.3,1c-1.5,4.3-3,8.5-4.6,12.8c-0.6,1.6-1.9,2.3-3.6,1.8c-0.8-0.2-1.3-0.8-1.6-1.6
		c-1.3-3.5-2.6-7.1-3.9-10.6C42.3,6,42,5.2,41.7,4.3C41.6,4.1,41.5,3.8,41.4,3.5z"/>
	<path fill="#FFFFFF" d="M26,7.4c-0.6,0.2-1,0.3-1.5,0.4c-1.7,0.6-2.6,1.8-2.6,3.7c0,2.2,0,4.4,0,6.7c0,0.3,0,0.6,0,1
		c-1.5,0-2.9,0-4.4,0c0-0.3-0.1-0.6-0.1-0.8c0-2.4,0-4.9,0-7.3c0-3.9,2.8-7,6.7-7.4c0.6-0.1,1.2-0.1,1.9-0.2C26,4.8,26,6.1,26,7.4z"
		/>
</g>
<g>
	<path fill="#B6AFAF" d="M54.9,56.2c-1,3.4-5.1,6-9.4,4.8c-4.1-1.2-6.4-5.7-5-10c1.3-4.1,5.7-6.4,9.8-4.9c4,1.4,5.8,5.3,5,8.8
		c-3.6,0-7.3,0-10.9,0c-0.1,1.1,0.9,2.2,2.1,2.7c1.6,0.7,3.1,0.2,4.5-1.4C52.2,56.2,53.5,56.2,54.9,56.2z M51.2,51.7
		c-0.1-1.6-1.6-2.6-3.9-2.5c-1.4,0-3.1,1.4-3,2.5C46.6,51.7,48.9,51.7,51.2,51.7z"/>
	<path fill="#B6AFAF" d="M26,53.4c0.2,4.1-3.4,7.9-7.8,7.9c-4.2,0-7.9-3.2-7.9-7.9c0-4.9,3.9-7.9,8-7.9C22.5,45.5,26.2,49.2,26,53.4
		z M14.5,53.4c0,2.2,1.7,4,3.8,4s3.8-1.9,3.8-4.1s-1.8-4.1-3.8-4.1C16.1,49.3,14.5,51.2,14.5,53.4z"/>
	<path fill="#B6AFAF" d="M-4.9,51.2c1.9,0,3.7,0,5.5,0c0,1.5,0,2.9,0,4.4c-1.8,0-3.6,0-5.5,0c0,1.9,0,3.7,0,5.6c-1.5,0-2.9,0-4.5,0
		c0-1.8,0-3.6,0-5.5c-1.9,0-3.7,0-5.5,0c0-1.5,0-2.9,0-4.5c1.8,0,3.6,0,5.5,0c0-1.9,0-3.8,0-5.6c1.5,0,2.9,0,4.5,0
		C-4.9,47.4-4.9,49.3-4.9,51.2z"/>
	<path fill="#B6AFAF" d="M25.7,45.6c1.5,0,2.9,0,4.3,0c0.5,1.6,1.1,3.2,1.6,4.9c0.5,1.6,1.1,3.2,1.8,4.8c1-3.2,2.1-6.4,3.1-9.7
		c1.4,0,2.8,0,4.3,0c-0.1,0.4-0.2,0.7-0.3,1c-1.5,4.3-3,8.5-4.6,12.8c-0.6,1.6-1.9,2.3-3.6,1.8c-0.8-0.2-1.3-0.8-1.6-1.6
		c-1.3-3.5-2.6-7.1-3.9-10.6c-0.2-0.9-0.5-1.7-0.8-2.6C25.9,46.2,25.8,45.9,25.7,45.6z"/>
	<path fill="#B6AFAF" d="M10.3,49.5c-0.6,0.2-1,0.3-1.5,0.4c-1.7,0.6-2.6,1.8-2.6,3.7c0,2.2,0,4.4,0,6.7c0,0.3,0,0.6,0,1
		c-1.5,0-2.9,0-4.4,0c0-0.3-0.1-0.6-0.1-0.8c0-2.4,0-4.9,0-7.3c0-3.9,2.8-7,6.7-7.4c0.6-0.1,1.2-0.1,1.9-0.2
		C10.3,46.9,10.3,48.2,10.3,49.5z"/>
</g>
<g>
	<path fill="#FFFFFF" d="M49.6,105.1c-1,3.4-5.1,6-9.4,4.8c-4.1-1.2-6.4-5.7-5-10c1.3-4.1,5.7-6.4,9.8-4.9c4,1.4,5.8,5.3,5,8.8
		c-3.6,0-7.3,0-10.9,0c-0.1,1.1,0.9,2.2,2.1,2.7c1.6,0.7,3.1,0.2,4.5-1.4C46.9,105.1,48.2,105.1,49.6,105.1z M45.9,100.6
		C45.8,99,44.3,98,42,98.1c-1.4,0-3.1,1.4-3,2.5C41.3,100.6,43.6,100.6,45.9,100.6z"/>
	<path fill="#FFFFFF" d="M20.7,102.3c0.2,4.1-3.4,7.9-7.8,7.9c-4.2,0-7.9-3.2-7.9-7.9c0-4.9,3.9-7.9,8-7.9
		C17.2,94.4,20.9,98.1,20.7,102.3z M9.2,102.3c0,2.2,1.7,4,3.8,4s3.8-1.9,3.8-4.1S15,98.1,13,98.1C10.8,98.2,9.2,100.1,9.2,102.3z"
		/>
	<path fill="#FFFFFF" d="M-10.2,100.1c1.9,0,3.7,0,5.5,0c0,1.5,0,2.9,0,4.4c-1.8,0-3.6,0-5.5,0c0,1.9,0,3.7,0,5.6
		c-1.5,0-2.9,0-4.5,0c0-1.8,0-3.6,0-5.5c-1.9,0-3.7,0-5.5,0c0-1.5,0-2.9,0-4.5c1.8,0,3.6,0,5.5,0c0-1.9,0-3.8,0-5.6
		c1.5,0,2.9,0,4.5,0C-10.2,96.3-10.2,98.2-10.2,100.1z"/>
	<path fill="#FFFFFF" d="M20.4,94.5c1.5,0,2.9,0,4.3,0c0.5,1.6,1.1,3.2,1.6,4.9c0.5,1.6,1.1,3.2,1.8,4.8c1-3.2,2.1-6.4,3.1-9.7
		c1.4,0,2.8,0,4.3,0c-0.1,0.4-0.2,0.7-0.3,1c-1.5,4.3-3,8.5-4.6,12.8c-0.6,1.6-1.9,2.3-3.6,1.8c-0.8-0.2-1.3-0.8-1.6-1.6
		c-1.3-3.5-2.6-7.1-3.9-10.6c-0.2-0.9-0.5-1.7-0.8-2.6C20.6,95.1,20.5,94.8,20.4,94.5z"/>
	<path fill="#FFFFFF" d="M5,98.4c-0.6,0.2-1,0.3-1.5,0.4c-1.7,0.6-2.6,1.8-2.6,3.7c0,2.2,0,4.4,0,6.7c0,0.3,0,0.6,0,1
		c-1.5,0-2.9,0-4.4,0c0-0.3-0.1-0.6-0.1-0.8c0-2.4,0-4.9,0-7.3c0-3.9,2.8-7,6.7-7.4c0.6-0.1,1.2-0.1,1.9-0.2C5,95.8,5,97.1,5,98.4z"
		/>
</g>
<text transform="matrix(1 0 0 1 55.2724 25.1758)" fill="#B6AFAF" font-family="'Raleway-Light'" font-size="7.7197">beta</text>
<text transform="matrix(1 0 0 1 34.2724 116.1758)" fill="#B6AFAF" font-family="'Raleway-Light'" font-size="7.7197">beta</text>
</svg>
