<?xml version="1.0" encoding="utf-8"?>
<!-- Generator: Adobe Illustrator 18.0.0, SVG Export Plug-In . SVG Version: 6.00 Build 0)  -->
<!DOCTYPE svg PUBLIC "-//W3C//DTD SVG 1.1//EN" "http://www.w3.org/Graphics/SVG/1.1/DTD/svg11.dtd">
<svg version="1.1" id="Layer_1" xmlns="http://www.w3.org/2000/svg" xmlns:xlink="http://www.w3.org/1999/xlink" x="0px" y="0px"
	 viewBox="0 0 72 18" enable-background="new 0 0 72 18" xml:space="preserve">
<g>
	<path fill="#B6AFAF" d="M70.6,11.9c-1,3.4-5.1,6-9.4,4.8c-4.1-1.2-6.4-5.7-5-10c1.3-4.1,5.7-6.4,9.8-4.9c4,1.4,5.8,5.3,5,8.8
		c-3.6,0-7.3,0-10.9,0c-0.1,1.1,0.9,2.2,2.1,2.7c1.6,0.7,3.1,0.2,4.5-1.4C67.9,11.9,69.2,11.9,70.6,11.9z M66.9,7.4
		c-0.1-1.6-1.6-2.6-3.9-2.5c-1.4,0-3.1,1.4-3,2.5C62.3,7.4,64.6,7.4,66.9,7.4z"/>
	<path fill="#B6AFAF" d="M41.7,9.1c0.2,4.1-3.4,7.9-7.8,7.9c-4.2,0-7.9-3.2-7.9-7.9c0-4.9,3.9-7.9,8-7.9C38.2,1.2,41.9,4.9,41.7,9.1
		z M30.2,9.1c0,2.2,1.7,4,3.8,4c2.1,0,3.8-1.9,3.8-4.1c0-2.2-1.8-4.1-3.8-4.1C31.8,5,30.2,6.9,30.2,9.1z"/>
	<path fill="#B6AFAF" d="M10.8,6.9c1.9,0,3.7,0,5.5,0c0,1.5,0,2.9,0,4.4c-1.8,0-3.6,0-5.5,0c0,1.9,0,3.7,0,5.6c-1.5,0-2.9,0-4.5,0
		c0-1.8,0-3.6,0-5.5c-1.9,0-3.7,0-5.5,0c0-1.5,0-2.9,0-4.5c1.8,0,3.6,0,5.5,0c0-1.9,0-3.8,0-5.6c1.5,0,2.9,0,4.5,0
		C10.8,3.1,10.8,5,10.8,6.9z"/>
	<path fill="#B6AFAF" d="M41.4,1.3c1.5,0,2.9,0,4.3,0c0.5,1.6,1.1,3.2,1.6,4.9c0.5,1.6,1.1,3.2,1.8,4.8c1-3.2,2.1-6.4,3.1-9.7
		c1.4,0,2.8,0,4.3,0c-0.1,0.4-0.2,0.7-0.3,1c-1.5,4.3-3,8.5-4.6,12.8c-0.6,1.6-1.9,2.3-3.6,1.8c-0.8-0.2-1.3-0.8-1.6-1.6
		c-1.3-3.5-2.6-7.1-3.9-10.6C42.3,3.8,42,3,41.7,2.1C41.6,1.9,41.5,1.6,41.4,1.3z"/>
	<path fill="#B6AFAF" d="M26,5.2c-0.6,0.2-1,0.3-1.5,0.4c-1.7,0.6-2.6,1.8-2.6,3.7c0,2.2,0,4.4,0,6.7c0,0.3,0,0.6,0,1
		c-1.5,0-2.9,0-4.4,0c0-0.3-0.1-0.6-0.1-0.8c0-2.4,0-4.9,0-7.3c0-3.9,2.8-7,6.7-7.4c0.6-0.1,1.2-0.1,1.9-0.2C26,2.6,26,3.9,26,5.2z"
		/>
</g>
</svg>
