<?xml version="1.0" encoding="utf-8"?>
<!-- Generator: Adobe Illustrator 16.0.0, SVG Export Plug-In . SVG Version: 6.00 Build 0)  -->
<!DOCTYPE svg PUBLIC "-//W3C//DTD SVG 1.1//EN" "http://www.w3.org/Graphics/SVG/1.1/DTD/svg11.dtd">
<svg version="1.1" id="Layer_1" xmlns="http://www.w3.org/2000/svg" xmlns:xlink="http://www.w3.org/1999/xlink" x="0px" y="0px"
	 width="200px" height="50px" viewBox="0 0 200 50" enable-background="new 0 0 200 50" xml:space="preserve">
<g>
	<path fill-rule="evenodd" clip-rule="evenodd" fill="#ABABAB" d="M166.396,29.032c-0.613,3.092,2.638,6.713,5.218,7.921
		c4.896,2.292,8.891,1.319,13.909-3.589c1.556,0,3.299,0,5.043,0c1.738,0,3.479,0,5.271,0c-1.661,6.406-10.175,14.933-21.554,13.585
		c-12.239-1.448-20.662-12.781-18.622-25.134c2.056-12.458,13.846-20.437,26.203-17.404c11.232,2.755,17.359,13.852,15.41,24.622
		C187.006,29.032,176.663,29.032,166.396,29.032z M186.8,20.808c-0.507-4.77-5.206-8.043-10.964-7.869
		c-4.744,0.143-9.256,3.808-9.461,7.869C173.148,20.808,179.917,20.808,186.8,20.808z"/>
	<path fill-rule="evenodd" clip-rule="evenodd" fill="#ABABAB" d="M92.724,46.996c-12.362-0.058-21.686-9.349-21.554-21.682
		c0.129-12.018,8.966-21.626,21.929-21.485c12.52,0.134,21.569,9.26,21.498,21.863C114.527,38.067,105.297,47.058,92.724,46.996z
		 M81.909,25.449c-0.055,6.348,4.827,11.599,10.848,11.664c6.169,0.066,11.125-5.109,11.218-11.711
		c0.09-6.326-4.944-11.625-11.081-11.668C86.85,13.689,81.967,18.899,81.909,25.449z"/>
	<path fill-rule="evenodd" clip-rule="evenodd" fill="#ABABAB" d="M115.298,5.378c3.698,0,7.157,0,10.795,0
		c2.879,8.701,5.741,17.354,8.605,26.01c0.197,0.007,0.396,0.015,0.593,0.023c2.861-8.649,5.721-17.297,8.614-26.039
		c3.61,0,7.07,0,10.72,0c-0.132,0.567-0.191,1.01-0.34,1.42c-4.144,11.477-8.287,22.953-12.451,34.422
		c-1.176,3.235-3.564,5.036-6.624,5.091c-3.339,0.058-5.662-1.476-6.914-4.865c-3.279-8.871-6.469-17.772-9.696-26.663
		c-0.916-2.523-1.843-5.043-2.754-7.569C115.654,6.679,115.521,6.13,115.298,5.378z"/>
	<path fill-rule="evenodd" clip-rule="evenodd" fill="#ABABAB" d="M16.157,20.018c0-5.132,0-9.824,0-14.639c3.69,0,7.083,0,10.791,0
		c0,4.84,0,9.524,0,14.484c4.937,0,9.571,0,14.422,0c0,3.656,0,7.03,0,10.689c-4.75,0-9.385,0-14.332,0c0,4.954,0,9.636,0,14.517
		c-3.708,0-7.102,0-10.865,0c0-4.729,0-9.458,0-14.451c-4.935,0-9.516,0-14.307,0c0-3.599,0-6.928,0-10.6
		C6.494,20.018,11.114,20.018,16.157,20.018z"/>
	<path fill-rule="evenodd" clip-rule="evenodd" fill="#ABABAB" d="M68.184,5.394c0,3.264,0,6.32,0,9.426
		c-0.435,0.132-0.753,0.254-1.084,0.326c-6.018,1.308-9.556,5.576-9.637,11.793c-0.066,5.251-0.01,10.501-0.021,15.753
		c-0.001,0.743-0.079,1.486-0.132,2.399c-3.464,0-6.792,0-10.27,0c-0.071-0.679-0.183-1.241-0.183-1.802
		c-0.009-5.835-0.069-11.67,0.017-17.502c0.151-10.33,7.724-18.894,17.961-20.374C65.848,5.267,66.901,5.394,68.184,5.394z"/>
</g>
</svg>
